<?xml version="1.0" encoding="utf-8"?>
<!-- Generator: Adobe Illustrator 19.2.1, SVG Export Plug-In . SVG Version: 6.00 Build 0)  -->
<svg version="1.1" id="layer" xmlns="http://www.w3.org/2000/svg" xmlns:xlink="http://www.w3.org/1999/xlink" x="0px" y="0px"
	 viewBox="0 0 652 652" style="enable-background:new 0 0 652 652;" xml:space="preserve">
<style type="text/css">
	.st0{fill:#2F3135;}
</style>
<g>
	<path class="st0" d="M56.6,377.3l-0.5-0.2l-35.5-50.3l-0.1-0.6l25.7-55.9l0.5-0.3l61.2-5.7l0.5,0.2l35.5,50.3l0.1,0.6l-25.7,55.9
		l-0.5,0.3L56.6,377.3L56.6,377.3z M21.8,326.4l35.1,49.7l60.5-5.6l25.4-55.3l-35.1-49.7l-60.5,5.6L21.8,326.4z M117.8,371
		L117.8,371L117.8,371z"/>
	<path class="st0" d="M56.4,377.2L46.6,326l0-55.9l47.9,14.1l49.6,30.9l-36.9,32.8L56.4,377.2z M47.1,270.9l0,55.1l9.7,50.3l50-28.9
		l36.2-32.2l-48.9-30.4L47.1,270.9z"/>
	<path class="st0" d="M97,284.8c0,1-0.8,1.8-1.8,1.8c-1,0-1.8-0.8-1.8-1.8c0-1,0.8-1.8,1.8-1.8C96.2,283,97,283.8,97,284.8"/>
	<path class="st0" d="M95.2,288.4c-2,0-3.7-1.6-3.7-3.7c0-2,1.6-3.7,3.7-3.7c2,0,3.7,1.6,3.7,3.7C98.8,286.8,97.2,288.4,95.2,288.4
		 M95.2,284.7l-0.1,0.1l0.1,0.1V284.7z"/>
	<path class="st0" d="M108.9,347.5c0,1-0.8,1.8-1.8,1.8c-1,0-1.8-0.8-1.8-1.8c0-1,0.8-1.8,1.8-1.8
		C108.1,345.7,108.9,346.5,108.9,347.5"/>
	<path class="st0" d="M107.1,351.2c-2,0-3.7-1.6-3.7-3.7s1.6-3.7,3.7-3.7c2,0,3.7,1.6,3.7,3.7S109.1,351.2,107.1,351.2 M107.1,347.4
		l-0.1,0.1l0.1,0.1V347.4z"/>
	<path class="st0" d="M58.8,376.7c0,1-0.8,1.8-1.8,1.8c-1,0-1.8-0.8-1.8-1.8c0-1,0.8-1.8,1.8-1.8C58,374.9,58.8,375.7,58.8,376.7"/>
	<path class="st0" d="M57,380.4c-2,0-3.7-1.6-3.7-3.7c0-2,1.6-3.7,3.7-3.7c2,0,3.7,1.6,3.7,3.7C60.7,378.7,59.1,380.4,57,380.4
		 M57,376.6l-0.1,0.1l0.1,0.1V376.6z"/>
	<path class="st0" d="M48.6,326.6c0,1-0.8,1.8-1.8,1.8c-1,0-1.8-0.8-1.8-1.8c0-1,0.8-1.8,1.8-1.8C47.8,324.8,48.6,325.6,48.6,326.6"
		/>
	<path class="st0" d="M46.8,330.2c-2,0-3.7-1.6-3.7-3.7c0-2,1.6-3.7,3.7-3.7c2,0,3.7,1.6,3.7,3.7C50.5,328.6,48.8,330.2,46.8,330.2
		 M46.8,326.5l-0.1,0.1l0.1,0.1V326.5z"/>
	<path class="st0" d="M145.3,315.2c0,1-0.8,1.8-1.8,1.8s-1.8-0.8-1.8-1.8c0-1,0.8-1.8,1.8-1.8S145.3,314.2,145.3,315.2"/>
	<path class="st0" d="M143.5,318.9c-2,0-3.7-1.6-3.7-3.7c0-2,1.6-3.7,3.7-3.7c2,0,3.7,1.6,3.7,3.7
		C147.2,317.2,145.5,318.9,143.5,318.9 M143.5,315.1l-0.1,0.1l0.1,0.1V315.1z"/>
	<path class="st0" d="M48.6,270.5c0,1-0.8,1.8-1.8,1.8c-1,0-1.8-0.8-1.8-1.8c0-1,0.8-1.8,1.8-1.8C47.8,268.7,48.6,269.5,48.6,270.5"
		/>
	<path class="st0" d="M46.8,274.2c-2,0-3.7-1.6-3.7-3.7c0-2,1.6-3.7,3.7-3.7c2,0,3.7,1.6,3.7,3.7C50.5,272.5,48.8,274.2,46.8,274.2
		 M46.8,270.4l-0.1,0.1l0.1,0.1V270.4z"/>
	<path class="st0" d="M117.8,371.6l-0.2,0L71,355.1L20.8,327l-0.3-0.4l0.2-0.5l37.7-34.6l49.3-27.1l0.5,0l0.3,0.4l11,48.6l-1.2,57.8
		l-0.3,0.5L117.8,371.6z M22.1,326.3l49.3,27.7l45.8,16.2l1.2-56.8l-10.9-47.7l-48.5,26.7L22.1,326.3z"/>
	<path class="st0" d="M107.3,347.7l-0.2-0.1l-60.5-21l0.2-0.2l48.5-42L107.3,347.7z M47.1,326.5l59.8,20.8L95.1,285L47.1,326.5z"/>
	<path class="st0" d="M70.8,355.7L58,291l62.2,22.2L70.8,355.7z M59.6,292.8l11.9,60.7l46.4-39.8L59.6,292.8z"/>
	
		<rect x="52.2" y="268.9" transform="matrix(0.8718 -0.4898 0.4898 0.8718 -130.9685 61.9204)" class="st0" width="1.2" height="24.5"/>
	
		<rect x="51" y="365" transform="matrix(0.5371 -0.8435 0.8435 0.5371 -278.7512 223.3139)" class="st0" width="26.2" height="1.2"/>
	<polygon class="st0" points="143.5,315.8 119,314 119.1,312.8 143.6,314.6 	"/>
	<polygon class="st0" points="171.3,300.9 181.2,300.8 181.3,317.5 200.4,317.4 200.3,300.7 210.1,300.7 210.4,345.3 200.5,345.4 
		200.4,326.1 181.3,326.2 181.4,345.5 171.6,345.5 	"/>
	<polygon class="st0" points="229.7,326.2 212.8,300.7 225,300.6 234.6,317.3 244.5,300.5 256.2,300.5 239.5,326.1 239.6,345.2 
		229.8,345.2 	"/>
	<path class="st0" d="M258.8,300.4l16.6-0.1c2.3,0,4.5,0.2,6.6,0.6c2.1,0.4,3.9,1.1,5.4,2.1c1.5,1,2.8,2.4,3.7,4.1
		c0.9,1.7,1.4,3.9,1.4,6.6c0,2.6-0.4,4.8-1.2,6.6c-0.8,1.8-2,3.2-3.4,4.2c-1.5,1.1-3.2,1.8-5.2,2.3c-2,0.5-4.2,0.7-6.6,0.7l-7.2,0
		l0.1,17.4l-9.8,0.1L258.8,300.4z M268.8,319.3l6.6,0c0.9,0,1.7-0.1,2.6-0.3c0.8-0.2,1.5-0.5,2.2-0.9c0.7-0.4,1.2-1,1.6-1.6
		c0.4-0.7,0.6-1.6,0.6-2.6c0-1.1-0.3-2-0.8-2.7c-0.5-0.7-1.2-1.2-2-1.6c-0.8-0.4-1.7-0.6-2.7-0.7c-1-0.1-2-0.1-2.9-0.1l-5,0
		L268.8,319.3z"/>
	<polygon class="st0" points="298.3,300.2 328.7,300.1 328.7,309.2 308.2,309.3 308.3,317.6 327.6,317.5 327.7,326.6 308.3,326.7 
		308.4,335.7 330,335.6 330,344.7 298.6,344.9 	"/>
	<path class="st0" d="M337.1,300l17.3-0.1c2.3,0,4.4,0.2,6.5,0.6c2,0.4,3.8,1.2,5.4,2.2c1.5,1,2.8,2.4,3.7,4.1
		c0.9,1.7,1.4,3.9,1.4,6.5c0,3.2-0.8,5.8-2.4,8.1c-1.6,2.2-4,3.6-7.2,4.2l11.5,18.8l-11.8,0.1l-9.4-17.8l-4.9,0l0.1,17.8l-9.8,0.1
		L337.1,300z M347,318.4l5.8,0c0.9,0,1.8,0,2.8-0.1c1-0.1,1.9-0.3,2.7-0.6c0.8-0.3,1.5-0.8,2-1.5c0.5-0.7,0.8-1.6,0.8-2.8
		c0-1.1-0.2-2-0.7-2.7c-0.5-0.7-1.1-1.2-1.8-1.5c-0.7-0.4-1.5-0.6-2.5-0.7c-0.9-0.1-1.8-0.2-2.7-0.2l-6.4,0L347,318.4z"/>
	<polygon class="st0" points="377.7,299.8 387.5,299.8 387.7,335.3 405.9,335.2 406,344.3 377.9,344.4 	"/>
	<polygon class="st0" points="410.9,299.6 441.3,299.5 441.3,308.6 420.8,308.7 420.9,317 440.2,316.9 440.3,326 420.9,326.1 
		421,335.1 442.6,335 442.6,344.1 411.2,344.3 	"/>
	<path class="st0" d="M449.7,299.4l14.8-0.1c3.6,0,7,0.4,10.2,1.1c3.2,0.8,6,2.1,8.4,3.8c2.4,1.8,4.3,4.1,5.7,6.9
		c1.4,2.9,2.1,6.3,2.2,10.4c0,3.6-0.6,6.8-2,9.6c-1.4,2.8-3.2,5.1-5.5,7c-2.3,1.9-5,3.3-8,4.3c-3,1-6.2,1.5-9.5,1.5l-16.1,0.1
		L449.7,299.4z M459.7,334.9l5.1,0c2.3,0,4.4-0.3,6.3-0.7c2-0.5,3.6-1.2,5.1-2.3c1.4-1.1,2.5-2.5,3.4-4.2c0.8-1.7,1.2-3.9,1.2-6.4
		c0-2.2-0.4-4.1-1.3-5.7c-0.8-1.6-1.9-2.9-3.3-4c-1.4-1-3-1.8-4.9-2.3c-1.9-0.5-3.8-0.8-5.9-0.8l-5.8,0L459.7,334.9z"/>
	<path class="st0" d="M537.6,340.4c-2.9,1.5-5.9,2.6-9.1,3.3c-3.1,0.7-6.4,1-9.6,1.1c-3.5,0-6.7-0.5-9.7-1.6
		c-2.9-1.1-5.5-2.6-7.7-4.7c-2.2-2-3.8-4.5-5.1-7.4c-1.2-2.9-1.8-6.1-1.9-9.7c0-3.6,0.6-6.8,1.7-9.7c1.2-2.9,2.8-5.4,5-7.4
		c2.1-2.1,4.7-3.6,7.6-4.7c2.9-1.1,6.1-1.7,9.6-1.7c3.6,0,6.9,0.4,9.9,1.2c3,0.9,5.7,2.3,7.9,4.4l-6.9,7.6c-1.4-1.4-2.9-2.4-4.6-3.1
		c-1.7-0.7-3.8-1.1-6.3-1c-2.1,0-4,0.4-5.7,1.1c-1.7,0.7-3.2,1.7-4.4,3c-1.2,1.3-2.1,2.8-2.8,4.6c-0.6,1.8-1,3.7-1,5.7
		c0,2.1,0.3,4,1,5.8c0.7,1.7,1.6,3.2,2.8,4.5c1.2,1.3,2.7,2.3,4.4,3c1.7,0.7,3.6,1.1,5.7,1c2.1,0,4-0.3,5.5-0.8
		c1.5-0.5,2.8-1,3.7-1.5l0-7.2l-8,0l0-9.1l17.5-0.1L537.6,340.4z"/>
	<polygon class="st0" points="545.7,298.9 576.1,298.8 576.1,307.8 555.6,308 555.7,316.3 575,316.2 575.1,325.3 555.7,325.4 
		555.8,334.4 577.4,334.3 577.4,343.4 546,343.6 	"/>
	<path class="st0" d="M584.5,298.7l17.3-0.1c2.3,0,4.4,0.2,6.5,0.6c2,0.4,3.8,1.2,5.4,2.2c1.5,1,2.8,2.4,3.7,4.1
		c0.9,1.7,1.4,3.9,1.4,6.5c0,3.2-0.8,5.8-2.4,8.1c-1.6,2.2-4,3.6-7.2,4.2l11.5,18.8l-11.8,0.1l-9.4-17.8l-4.9,0l0.1,17.8l-9.8,0
		L584.5,298.7z M594.4,317.1l5.8,0c0.9,0,1.8,0,2.8-0.1c1-0.1,1.9-0.3,2.7-0.6c0.8-0.3,1.5-0.8,2-1.5c0.5-0.7,0.8-1.6,0.8-2.8
		c0-1.1-0.2-2-0.7-2.7c-0.5-0.7-1.1-1.2-1.8-1.5c-0.7-0.4-1.5-0.6-2.5-0.7c-0.9-0.1-1.8-0.2-2.7-0.2l-6.4,0L594.4,317.1z"/>
</g>
</svg>
